# xmcd
#
# Track frame offsets: 
#        150
#        12358
#        25047
#        38490
#        49240
#        59966
#        70838
#        84572
#        102229
#        115540
#        127182
#        140701
#        152748
#        164368
#        172066
#        185265
#        197869
#        209367
#        220256
#        232749
#        244385
#        255968
#        271080
#        283839
#
# Disc length: 3905 seconds
#
# Revision: 1
# Processed by: cddbd v1.5.2PL0 Copyright (c) Steve Scherf et al.
# Submitted via: ExactAudioCopy v1.3
#
DISCID=5f0f3f18
DTITLE=Various Artist - 1966: The Year The Decade Exploded (2)
DYEAR=1966
DGENRE=Rock
TTITLE0=THE LOVIN' SPOONFUL Summer In The City MONO
TTITLE1=LEE DORSEY Working In The Coalmine MONO
TTITLE2=JOE TEX You Better Believe It Baby MONO
TTITLE3=LOVE 7 And 7 Is MONO
TTITLE4=CHRIS CLARK Love's Gone Bad MONO
TTITLE5=WILSON PICKETT Land Of 1000 Dances MONO
TTITLE6=COUNT FIVE Psychotic Reaction MONO
TTITLE7=THE TORNADOS Do You Come Here Often? MONO
TTITLE8=? and The MYSTERIANS 96 Tears MONO
TTITLE9=OTIS REDDING I Can't Turn You Loose MONO
TTITLE10=THE FOUR TOPS Reach Out I'll Be There MONO
TTITLE11=THE WHO I'm A Boy MONO
TTITLE12=PAUL and RITCHIE and THE CRYING SHAMES Come On Back MONO
TTITLE13=JAMES BROWN Tell Me That You Love Me MONO
TTITLE14=THE YARDBIRDS Happenings Ten Years Time Ago MONO
TTITLE15=THE SUPREMES You Keep Me Hangin' On MONO
TTITLE16=THE OXFORD CIRCLE Foolish Woman MONO
TTITLE17=THE HUMAN EXPRESSION Love At Psychedelic Velocity MONO
TTITLE18=THE BLUE THINGS One Hour Cleaners MONO
TTITLE19=FREAKS OF NATURE People! Let's Freak Out MONO
TTITLE20=WE THE PEOPLE In The Past MONO
TTITLE21=DAVID BOWIE The London Boys MONO
TTITLE22=THE MARVELETTES The Hunter Gets Captured By The Game MONO
TTITLE23=TIMHARDIN Hang On To A Dream MONO
EXTD=
EXTT0=
EXTT1=
EXTT2=
EXTT3=
EXTT4=
EXTT5=
EXTT6=
EXTT7=
EXTT8=
EXTT9=
EXTT10=
EXTT11=
EXTT12=
EXTT13=
EXTT14=
EXTT15=
EXTT16=
EXTT17=
EXTT18=
EXTT19=
EXTT20=
EXTT21=
EXTT22=
EXTT23=
PLAYORDER=
